<svg width="44" height="37" viewBox="0 0 44 37" fill="none" xmlns="http://www.w3.org/2000/svg">
<path d="M38.517 36.375H5.4824C2.45905 36.375 0 33.9151 0 30.891V6.10933C0.000275 3.08515 2.45933 0.625 5.4824 0.625H38.5168C41.5401 0.625 43.9997 3.08515 43.9997 6.10933V30.8912C43.9997 33.9151 41.5401 36.375 38.517 36.375ZM5.4824 3.33238C3.95203 3.33238 2.70683 4.57813 2.70683 6.10933V30.8912C2.70683 32.4224 3.95203 33.6679 5.4824 33.6679H38.5168C40.0477 33.6679 41.2929 32.4224 41.2929 30.8912V6.10933C41.2929 4.57813 40.0477 3.33238 38.5168 3.33238H5.4824Z" fill="#A69792"/>
<path d="M22 21.9191C21.7223 21.9192 21.4513 21.8338 21.224 21.6744L0.577505 7.21819C0.288591 7.01034 0.0931651 6.69706 0.0335395 6.34618C-0.026086 5.99531 0.0548866 5.63506 0.258927 5.34344C0.462967 5.05183 0.773654 4.85231 1.12372 4.78809C1.47379 4.72387 1.83506 4.80011 2.12933 5.00031L22 18.9131L41.8707 5.00059C42.1649 4.80039 42.5262 4.72415 42.8763 4.78837C43.2264 4.85259 43.537 5.0521 43.7411 5.34372C43.9451 5.63533 44.0261 5.99558 43.9665 6.34646C43.9068 6.69734 43.7114 7.01062 43.4225 7.21846L22.7761 21.6744C22.5487 21.8338 22.2777 21.9192 22 21.9191Z" fill="#A69792"/>
</svg>
