<svg width="37" height="37" viewBox="0 0 37 37" fill="none" xmlns="http://www.w3.org/2000/svg">
<path fill-rule="evenodd" clip-rule="evenodd" d="M34.0284 0.0749512H2.77909C1.28721 0.0749512 0.0750122 1.25965 0.0750122 2.71963V34.0971C0.0750122 35.5546 1.28721 36.7415 2.77909 36.7415H34.0284C35.5247 36.7415 36.7416 35.5546 36.7416 34.0971V2.71963C36.7416 1.25965 35.5247 0.0749512 34.0284 0.0749512ZM5.50846 31.3196H10.9491V13.8203H5.50846V31.3196ZM8.22876 11.4303C6.48471 11.4303 5.07781 10.0162 5.07781 8.27683C5.07781 6.53525 6.48471 5.1234 8.22876 5.1234C9.96594 5.1234 11.3797 6.53525 11.3797 8.27683C11.3797 10.0162 9.96594 11.4303 8.22876 11.4303ZM31.3197 31.3196H25.8838V22.8084C25.8838 20.7778 25.8494 18.17 23.0581 18.17C20.2278 18.17 19.7972 20.3815 19.7972 22.6615V31.3196H14.3591V13.8203H19.5747V16.2128H19.6503C20.3769 14.8378 22.1506 13.3872 24.7975 13.3872C30.3044 13.3872 31.3197 17.0103 31.3197 21.7221V31.3196Z" fill="#A69792"/>
</svg>
