<svg width="134" height="67" viewBox="0 0 134 67" fill="none" xmlns="http://www.w3.org/2000/svg">
<g clip-path="url(#clip0_1_33)">
<path d="M133.785 17.5231C133.46 16.751 132.048 16.4212 131.102 15.9377C130.898 15.8325 130.594 15.9243 130.145 15.9253C130.991 14.745 131.588 14.0626 132.008 13.2843C132.462 12.4463 132.735 11.5113 133.115 10.6299C134.123 8.2817 132.692 6.31797 130.127 6.58083C129.261 6.66948 128.406 6.85709 127.339 7.03336C127.548 6.39734 127.694 5.99531 127.812 5.58401C128.335 3.75634 127.527 1.22874 126.094 0.687556C124.329 0.0216376 123.317 1.38646 122.462 2.52347C121.448 3.8718 120.703 5.4232 119.843 6.88492C117.22 4.88098 115.746 5.23353 114.587 8.40849C114.008 9.99494 113.859 11.7381 113.58 13.0905C112.693 13.5163 111.677 13.6668 111.368 14.2162C110.475 15.7922 109.755 17.4602 109.221 19.191C108.811 20.5352 108.802 21.8103 107.019 22.3526C106.089 22.635 105.332 23.8679 104.753 24.8266C104.104 25.9038 103.744 27.1562 103.258 28.3324L103.067 27.7974C101.983 28.0057 100.719 27.9345 99.865 28.4943C98.9063 29.1231 98.2219 30.2611 97.5941 31.2858C96.8127 32.5619 96.2107 33.9484 95.5273 35.2957C92.7399 33 90.8432 33.4825 89.3876 36.8316C88.8877 37.9831 88.4537 39.1634 87.8249 40.7437C87.329 39.8747 87.1785 39.6005 87.0188 39.3335C85.6086 36.9811 84.5994 36.6925 82.4728 38.4356C79.5555 40.8282 78.937 44.467 78.1134 47.8327C77.299 51.1592 77.098 54.6351 76.5362 58.0297C76.4661 58.4503 75.8981 58.9214 75.4508 59.1244C72.6986 60.3759 69.8775 61.4696 67.001 62.4004C64.1246 61.4695 61.3035 60.3757 58.5513 59.1244C58.1039 58.9214 57.5359 58.4492 57.4658 58.0297C56.904 54.6351 56.703 51.1592 55.8887 47.8327C55.064 44.467 54.4465 40.8272 51.5293 38.4356C49.4027 36.6915 48.3945 36.9811 46.9833 39.3335C46.8225 39.6005 46.673 39.8747 46.1772 40.7437C45.5484 39.1634 45.1144 37.9831 44.6144 36.8316C43.1589 33.4825 41.2622 33 38.4748 35.2957C37.7914 33.9484 37.1894 32.5619 36.408 31.2858C35.7802 30.2611 35.0957 29.1231 34.1371 28.4943C33.2835 27.9345 32.0187 28.0046 30.9353 27.7974L30.7436 28.3324C30.258 27.1562 29.8983 25.9038 29.2478 24.8266C28.6695 23.8679 27.9119 22.635 26.982 22.3526C25.1987 21.8103 25.1905 20.5352 24.7802 19.191C24.2459 17.4602 23.5259 15.7922 22.633 14.2162C22.3227 13.6668 21.3083 13.5163 20.4208 13.0905C20.1425 11.7381 19.993 9.99494 19.4137 8.40849C18.254 5.23353 16.7809 4.88098 14.1585 6.88492C13.2977 5.4232 12.5535 3.8718 11.5391 2.52347C10.6835 1.38646 9.6723 0.0216376 7.90752 0.687556C6.47363 1.22874 5.66648 3.75634 6.18912 5.58401C6.30663 5.99531 6.45404 6.39734 6.66227 7.03336C5.59536 6.85709 4.73976 6.66948 3.87386 6.58083C1.30915 6.31797 -0.121641 8.2817 0.886513 10.6299C1.26483 11.5113 1.53903 12.4452 1.99156 13.2843C2.41214 14.0626 3.009 14.745 3.85531 15.9253C3.40587 15.9233 3.10177 15.8325 2.89767 15.9377C1.95239 16.4212 0.540152 16.75 0.21544 17.5231C-0.385535 18.9539 0.327804 20.4198 1.6349 21.3774C2.4441 21.9701 3.34814 22.4319 4.27383 22.9917C0.975164 25.1204 0.876206 27.2799 3.9687 29.8323C5.18096 30.8322 6.64784 31.5239 7.9941 32.3547C7.89308 32.5454 7.86113 32.6846 7.77351 32.7609C5.03974 35.1751 4.93666 35.505 7.79206 37.8862C9.37542 39.2056 11.3515 40.0602 13.1782 41.0745C13.7101 41.3694 14.3389 41.491 14.877 41.6766C14.8409 42.0105 14.8625 42.1559 14.8079 42.261C13.2163 45.3298 13.9585 47.441 17.1943 48.8718C18.0695 49.2583 18.9982 49.5356 19.9188 49.8016C20.8352 50.0665 21.7732 50.2541 22.8134 50.5015C22.3196 54.7022 23.2277 56.0299 27.3975 57.0184C29.0602 57.4122 30.7827 57.5514 32.3795 57.7905C32.4413 58.9677 32.2496 60.1223 32.6258 61.0449C32.9681 61.8829 33.8257 62.8932 34.6349 63.0921C38.449 64.0271 42.2909 65.4414 46.2823 64.0312C49.5171 62.888 52.6941 61.5819 55.9227 60.4222C56.4402 60.2367 57.1483 60.2893 57.6792 60.48C60.0171 61.3201 62.3283 62.2509 64.6569 63.1179C61.4716 64.025 58.2235 64.7126 54.8908 65.1177C54.4166 65.1764 53.1559 65.5929 54.0043 66.2032C54.3115 66.4238 54.9083 66.532 55.2805 66.4701C58.4802 65.9434 61.7407 65.5744 64.8342 64.659C65.563 64.4435 66.2825 64.1972 67.0021 63.9518C67.7216 64.1972 68.4411 64.4435 69.1699 64.659C72.2634 65.5744 75.5229 65.9434 78.7237 66.4701C79.2051 66.5495 80.3668 66.2897 80.1091 65.5537C79.8205 64.728 76.0425 64.6672 75.226 64.5126C73.2466 64.1366 71.2853 63.6709 69.3482 63.1168C71.6769 62.2499 73.987 61.3191 76.3259 60.4789C76.8568 60.2882 77.565 60.2346 78.0825 60.4212C81.311 61.5819 84.4881 62.887 87.7228 64.0302C91.7142 65.4414 95.5561 64.026 99.3702 63.0911C100.18 62.8921 101.037 61.8819 101.379 61.0438C101.756 60.1223 101.564 58.9667 101.626 57.7895C103.222 57.5493 104.946 57.4112 106.608 57.0174C110.777 56.0288 111.686 54.7011 111.192 50.5005C112.233 50.252 113.171 50.0644 114.086 49.8006C115.008 49.5346 115.937 49.2573 116.811 48.8707C120.047 47.4399 120.789 45.3288 119.197 42.26C119.143 42.1549 119.164 42.0095 119.128 41.6755C119.666 41.49 120.295 41.3694 120.827 41.0735C122.654 40.0592 124.63 39.2046 126.213 37.8851C129.068 35.505 128.965 35.1741 126.232 32.7598C126.144 32.6825 126.112 32.5444 126.011 32.3537C127.358 31.5239 128.824 30.8322 130.036 29.8313C133.129 27.2789 133.03 25.1193 129.731 22.9907C130.657 22.4309 131.561 21.9691 132.37 21.3764C133.672 20.4198 134.386 18.9539 133.785 17.5231ZM40.9436 35.7493C41.69 36.3307 42.8301 36.7636 43.1135 37.5192C44.2763 40.6179 45.234 43.798 46.1566 46.9812C46.7359 48.9779 47.1204 51.0314 47.6884 53.4713C46.3246 52.7611 45.3566 52.3962 44.5495 51.8076C42.7981 50.5304 40.7189 49.5841 40.5777 46.8544C40.4282 43.9887 39.7984 41.1477 39.6448 38.282C39.6015 37.4625 40.4859 36.5945 40.9436 35.7493ZM32.3991 29.3313C35.606 31.3126 39.3304 42.8022 38.2923 47.8791C36.2162 45.7751 33.4227 44.1969 32.7289 41.9652C31.5053 38.0295 30.0828 33.7031 32.3991 29.3313ZM24.7441 27.0563C24.7967 25.8461 25.3028 24.6565 25.6028 23.4566L26.3501 23.5483C31.0054 28.1902 28.2541 34.6308 30.358 39.8922L29.6777 40.2354C28.1098 38.4933 26.5388 36.7543 24.9822 35.0019C24.8699 34.8762 24.8152 34.6576 24.8121 34.4813C24.7678 32.0063 24.6359 29.5261 24.7441 27.0563ZM18.9776 25.1657C19.3281 22.5742 19.6693 19.9806 20.1033 17.4025C20.2177 16.7232 20.6486 16.0975 20.9331 15.446C21.5063 15.9666 22.1248 16.449 22.634 17.0263C22.8659 17.2881 22.9824 17.7396 22.9834 18.1055C22.9865 22.5948 22.9577 27.0841 22.9371 31.5734L22.5124 31.6837C21.3578 29.8725 20.1858 28.0727 19.0694 26.2378C18.9013 25.9625 18.9302 25.5183 18.9776 25.1657ZM14.9996 9.85269C15.0388 9.01565 15.8862 8.21779 16.3614 7.40137L17.0469 7.61372C19.7425 12.2793 17.6417 16.9871 16.8871 21.8938C16.6376 21.5227 16.4686 21.3351 16.3686 21.1145C14.7306 17.5087 14.8182 13.6668 14.9996 9.85269ZM8.47963 2.42554C8.97133 2.66367 9.55169 2.80386 9.93929 3.1564C12.8772 5.82729 12.4834 9.4084 12.6926 12.8205L12.102 13.0668C10.9382 11.0423 9.68983 9.06101 8.65075 6.9746C8.19718 6.06438 8.08791 4.94799 7.98895 3.90891C7.94462 3.43576 8.30336 2.92241 8.47963 2.42554ZM2.72449 10.564C2.41936 10.1094 2.53791 9.18059 2.79665 8.62806C2.90488 8.39716 3.90788 8.47962 4.47175 8.58786C7.64362 9.19605 9.0002 11.9834 10.7536 14.1647C12.2659 16.0449 13.3142 18.2983 14.5688 20.3868L13.8152 21.0764C11.6443 19.6549 9.23214 18.4911 7.37045 16.7397C5.51701 14.9986 4.16147 12.706 2.72449 10.564ZM2.94405 20.3785C2.24824 20.0239 1.95446 18.8756 1.32256 17.8468C5.03252 17.1726 16.6088 23.9246 16.8696 27.0965C12.0576 24.8008 7.45704 22.6752 2.94405 20.3785ZM6.35405 29.6797C4.66039 28.92 3.45947 27.616 3.42339 25.1399C6.80658 25.3245 9.90733 25.7162 12.8091 27.214C13.7678 27.7088 14.7894 28.3056 15.8212 28.3932C19.4219 28.6984 20.4455 31.6692 22.3124 34.0876C21.8701 34.1618 21.6908 34.2391 21.5279 34.2123C16.2933 33.3726 11.1916 31.8487 6.35405 29.6797ZM11.3711 38.7799C9.79085 38.248 8.60539 36.5409 7.1983 35.3307C9.15482 33.7299 9.83517 33.5515 11.6618 33.9371C14.4038 34.5154 17.15 35.0741 19.8909 35.6555C22.4216 36.1925 25.0492 36.4915 26.4027 39.2716C26.7377 39.9592 27.6325 40.3612 28.2252 40.9395C28.7458 41.4467 29.2035 42.0167 30.0446 42.9548C27.1624 42.4136 24.8946 42.0518 22.6567 41.5529C18.8725 40.7117 15.0306 40.0118 11.3711 38.7799ZM22.4876 48.6553C20.3868 48.4007 18.3756 47.1719 16.4078 46.2122C15.9727 45.9999 15.5388 44.8814 15.7315 44.4897C16.0428 43.8568 16.817 43.3527 17.5056 43.0383C17.9726 42.8249 18.6436 42.9579 19.2003 43.0589C22.8288 43.7197 26.4439 44.4516 30.0787 45.0711C30.9394 45.2175 32.1012 44.6587 32.7011 45.0608C34.4236 46.2122 35.9286 47.6904 37.6563 49.1573C37.1986 49.3501 36.9698 49.5367 36.7523 49.5253C31.9929 49.281 27.2088 49.2264 22.4876 48.6553ZM28.2469 55.5588C27.3181 55.3413 26.2955 55.1784 25.542 54.6599C24.9286 54.2373 24.3369 53.3188 24.3421 52.625C24.3462 52.1715 25.375 51.5396 26.0512 51.3282C26.812 51.0901 27.6923 51.2004 28.52 51.219C31.4321 51.286 34.4329 51.8591 37.2347 51.3416C40.9065 50.6623 42.9847 52.7931 45.4257 54.7156C39.7056 55.6412 34.0422 56.9154 28.2469 55.5588ZM53.8734 59.7697C47.8533 62.9663 41.6116 63.9858 35.0782 61.5366C34.6205 61.3644 34.1824 60.6037 34.1237 60.0728C34.0773 59.6553 34.5319 58.9275 34.937 58.7616C36.2249 58.2396 37.5546 57.8272 38.9119 57.5287C41.6178 56.9246 44.3464 56.4185 47.0668 55.8825C47.3585 55.8247 47.7245 55.7216 47.9533 55.8402C50.0284 56.9164 52.0797 58.0359 54.2074 59.1811C53.9991 59.5574 53.9661 59.7213 53.8734 59.7697ZM55.299 57.7947C54.1919 57.3205 52.992 56.9865 52.0055 56.3309C51.1118 55.7371 50.1108 54.9186 49.7593 53.9744C49.0728 52.1333 48.577 50.1541 48.4223 48.1986C48.2141 45.5587 48.2017 42.8651 48.4945 40.2375C48.678 38.5913 49.7181 38.3531 50.5706 39.7303C51.9261 41.9178 53.26 44.2454 53.9363 46.6988C54.9083 50.2253 55.2825 53.9177 55.9124 57.539L55.299 57.7947ZM124.052 3.15743C124.44 2.80489 125.021 2.6647 125.512 2.42657C125.688 2.92241 126.047 3.43575 126.002 3.91097C125.903 4.95005 125.794 6.06644 125.34 6.97666C124.301 9.06307 123.052 11.0443 121.889 13.0689L121.298 12.8225C121.508 9.40943 121.116 5.82832 124.052 3.15743ZM123.239 14.1647C124.993 11.9834 126.349 9.19605 129.521 8.58786C130.085 8.47962 131.088 8.39716 131.195 8.62806C131.454 9.18059 131.571 10.1094 131.267 10.564C129.83 12.706 128.475 14.9986 126.623 16.7407C124.762 18.4921 122.35 19.6559 120.179 21.0774L119.425 20.3878C120.679 18.2983 121.728 16.0449 123.239 14.1647ZM116.945 7.61372L117.63 7.40137C118.106 8.21779 118.953 9.01565 118.992 9.85269C119.174 13.6668 119.261 17.5087 117.623 21.1145C117.523 21.3341 117.354 21.5227 117.105 21.8938C116.35 16.9871 114.249 12.2793 116.945 7.61372ZM111.358 17.0273C111.867 16.45 112.485 15.9686 113.059 15.447C113.344 16.0975 113.774 16.7242 113.888 17.4035C114.322 19.9817 114.663 22.5752 115.014 25.1667C115.062 25.5183 115.09 25.9625 114.922 26.2388C113.806 28.0727 112.634 29.8735 111.479 31.6847C111.338 31.6484 111.196 31.6116 111.055 31.5744C111.034 27.0851 111.005 22.5958 111.008 18.1066C111.008 17.7406 111.126 17.2891 111.358 17.0273ZM107.642 23.5483L108.389 23.4566C108.69 24.6554 109.195 25.8461 109.248 27.0563C109.356 29.5251 109.224 32.0053 109.179 34.4813C109.175 34.6576 109.121 34.8751 109.008 35.0019C107.452 36.7533 105.88 38.4933 104.313 40.2354L103.633 39.8922C105.738 34.6308 102.986 28.1902 107.642 23.5483ZM101.593 29.3313C103.908 33.702 102.486 38.0295 101.263 41.9652C100.569 44.198 97.7755 45.7751 95.6994 47.8791C94.6614 42.8033 98.3858 31.3126 101.593 29.3313ZM87.8341 46.9812C88.7578 43.799 89.7144 40.6179 90.8782 37.5192C91.1617 36.7636 92.3018 36.3307 93.0481 35.7493C93.5068 36.5945 94.3902 37.4625 94.3459 38.281C94.1923 41.1467 93.5625 43.9877 93.413 46.8534C93.2708 49.5841 91.1916 50.5293 89.4412 51.8065C88.6351 52.3952 87.6661 52.7601 86.3023 53.4703C86.8703 51.0314 87.2548 48.9779 87.8341 46.9812ZM78.0794 57.54C78.7092 53.9187 79.0834 50.2263 80.0555 46.6998C80.7317 44.2464 82.0666 41.9188 83.4212 39.7314C84.2747 38.3542 85.3148 38.5913 85.4973 40.2385C85.79 42.8661 85.7776 45.5597 85.5694 48.1997C85.4148 50.1552 84.919 52.1354 84.2324 53.9754C83.8799 54.9197 82.88 55.7371 81.9862 56.3319C80.9997 56.9875 79.7998 57.3215 78.6927 57.7957C78.4885 57.71 78.284 57.6248 78.0794 57.54ZM98.9135 61.5366C92.3801 63.9869 86.1384 62.9663 80.1184 59.7697C80.0256 59.7203 79.9926 59.5574 79.7854 59.1811C81.913 58.0359 83.9644 56.9164 86.0395 55.8402C86.2673 55.7216 86.6343 55.8247 86.926 55.8825C89.6474 56.4185 92.375 56.9246 95.0809 57.5287C96.4323 57.8297 97.7755 58.2379 99.0558 58.7616C99.4609 58.9275 99.9145 59.6543 99.8691 60.0728C99.8093 60.6037 99.3712 61.3655 98.9135 61.5366ZM108.449 54.6599C107.696 55.1784 106.674 55.3413 105.744 55.5588C99.9485 56.9154 94.2851 55.6412 88.564 54.7145C91.005 52.7931 93.0832 50.6613 96.755 51.3406C99.5568 51.8591 102.557 51.2849 105.47 51.2179C106.297 51.1994 107.178 51.0891 107.938 51.3272C108.615 51.5385 109.643 52.1704 109.648 52.624C109.654 53.3188 109.062 54.2373 108.449 54.6599ZM117.584 46.2122C115.616 47.1719 113.605 48.4007 111.504 48.6553C106.783 49.2264 101.999 49.281 97.2395 49.5253C97.022 49.5367 96.7931 49.3501 96.3354 49.1573C98.0631 47.6904 99.5681 46.2132 101.291 45.0608C101.891 44.6598 103.053 45.2185 103.913 45.0711C107.548 44.4516 111.164 43.7197 114.791 43.0589C115.349 42.9579 116.019 42.8249 116.486 43.0383C117.176 43.3527 117.949 43.8557 118.26 44.4897C118.454 44.8814 118.019 45.9999 117.584 46.2122ZM126.793 35.3318C125.386 36.542 124.201 38.249 122.621 38.7809C118.961 40.0128 115.119 40.7127 111.335 41.5559C109.097 42.0549 106.829 42.4167 103.947 42.9579C104.787 42.0198 105.246 41.4498 105.767 40.9426C106.36 40.3643 107.254 39.9623 107.589 39.2747C108.941 36.4946 111.569 36.1956 114.101 35.6586C116.842 35.0772 119.588 34.5185 122.33 33.9402C124.157 33.5526 124.837 33.7309 126.793 35.3318ZM130.568 25.1399C130.532 27.615 129.331 28.92 127.638 29.6797C122.8 31.8488 117.698 33.373 112.464 34.2133C112.301 34.2391 112.123 34.1628 111.679 34.0886C113.546 31.6703 114.57 28.6994 118.17 28.3943C119.201 28.3067 120.223 27.7098 121.182 27.215C124.084 25.7162 127.185 25.3255 130.568 25.1399ZM131.048 20.3785C126.535 22.6763 121.934 24.8008 117.122 27.0965C117.383 23.9236 128.959 17.1726 132.668 17.8468C132.037 18.8756 131.745 20.0239 131.048 20.3785Z" fill="#DDD481"/>
</g>
<defs>
<clipPath id="clip0_1_33">
<rect width="134" height="66" fill="white" transform="translate(0 0.5)"/>
</clipPath>
</defs>
</svg>
